<svg width="1920" height="6646" viewBox="0 0 1920 6646" fill="none" xmlns="http://www.w3.org/2000/svg">
<g clip-path="url(#clip0_320_304)">
<rect width="1920" height="6646" fill="#403E66"/>
<path d="M387 161L391.49 203.677L427.655 180.579L397.089 210.697L437.696 224.571L395.09 219.452L409.562 259.85L387 223.348L364.438 259.85L378.91 219.452L336.304 224.571L376.911 210.697L346.345 180.579L382.51 203.677L387 161Z" fill="#D9D9D9"/>
<path d="M35 298L39.4898 340.677L75.6552 317.579L45.0886 347.697L85.6963 361.571L43.0904 356.452L57.562 396.85L35 360.348L12.438 396.85L26.9096 356.452L-15.6963 361.571L24.9114 347.697L-5.65524 317.579L30.5102 340.677L35 298Z" fill="#D9D9D9"/>
<path d="M1367 -31L1371.49 11.6768L1407.66 -11.4215L1377.09 18.6974L1417.7 32.5711L1375.09 27.4519L1389.56 67.8504L1367 31.348L1344.44 67.8504L1358.91 27.4519L1316.3 32.5711L1356.91 18.6974L1326.34 -11.4215L1362.51 11.6768L1367 -31Z" fill="#D9D9D9"/>
<path d="M1893 57L1897.49 99.6768L1933.66 76.5785L1903.09 106.697L1943.7 120.571L1901.09 115.452L1915.56 155.85L1893 119.348L1870.44 155.85L1884.91 115.452L1842.3 120.571L1882.91 106.697L1852.34 76.5785L1888.51 99.6768L1893 57Z" fill="#D9D9D9"/>
<path d="M1544 161L1548.49 203.677L1584.66 180.579L1554.09 210.697L1594.7 224.571L1552.09 219.452L1566.56 259.85L1544 223.348L1521.44 259.85L1535.91 219.452L1493.3 224.571L1533.91 210.697L1503.34 180.579L1539.51 203.677L1544 161Z" fill="#D9D9D9"/>
<path d="M1921 761.277L1155 73H764.5L-1 761.277V6657H1921V761.277Z" fill="#FFFDC0"/>
<circle cx="957" cy="123" r="80" fill="#FFF942"/>
<path d="M762.385 -36L686 122H1234L1159.59 -36H762.385Z" fill="#707070"/>
<path d="M139 -12L143.49 30.6768L179.655 7.57853L149.089 37.6974L189.696 51.5711L147.09 46.4519L161.562 86.8504L139 50.348L116.438 86.8504L130.91 46.4519L88.3037 51.5711L128.911 37.6974L98.3448 7.57853L134.51 30.6768L139 -12Z" fill="#D9D9D9"/>
</g>
<defs>
<clipPath id="clip0_320_304">
<rect width="1920" height="6646" fill="white"/>
</clipPath>
</defs>
</svg>
