<svg width="236" height="74" viewBox="0 0 236 74" fill="none" xmlns="http://www.w3.org/2000/svg">
<path d="M30.8105 14.209C28.5319 13.623 26.1719 13.3301 23.7305 13.3301C21.2565 13.3301 19.2708 13.9323 17.7734 15.1367C16.2435 16.3737 15.4785 18.1152 15.4785 20.3613C15.4785 22.6074 16.0482 24.3652 17.1875 25.6348C18.3268 26.8717 20.5566 27.9622 23.877 28.9062L32.8125 31.4941C37.5977 32.8939 41.4062 35.0911 44.2383 38.0859C47.0703 41.0482 48.4863 45.3939 48.4863 51.123C48.4863 55.6478 47.3633 59.554 45.1172 62.8418C42.8711 66.1296 39.8112 68.6686 35.9375 70.459C32.0964 72.2168 27.7507 73.0957 22.9004 73.0957C18.8965 73.0957 14.7786 72.5911 10.5469 71.582C6.3151 70.5404 2.79948 69.0918 0 67.2363V64.8926C0 64.1439 0.0976562 63.0046 0.292969 61.4746C0.520833 59.9447 0.830078 58.3496 1.2207 56.6895C1.64388 54.9967 2.13216 53.5645 2.68555 52.3926H12.207C13.2812 54.5085 13.916 57.2754 14.1113 60.6934C16.3574 61.7025 19.0755 62.207 22.2656 62.207C25.3581 62.207 27.8971 61.4746 29.8828 60.0098C31.901 58.5449 32.9102 56.4453 32.9102 53.7109C32.9102 52.4089 32.8125 51.3509 32.6172 50.5371C32.4219 49.6908 31.8034 48.7956 30.7617 47.8516C29.7201 46.9076 28.2389 46.1263 26.3184 45.5078L16.0156 42.5293C5.53385 39.5671 0.292969 32.8939 0.292969 22.5098C0.292969 18.4733 1.28581 14.9577 3.27148 11.9629C5.28971 8.9681 8.08919 6.64062 11.6699 4.98047C15.2507 3.32031 19.4173 2.49023 24.1699 2.49023C31.2988 2.49023 38.2487 4.10156 45.0195 7.32422V9.61914C45.0195 10.3678 44.9056 11.5234 44.6777 13.0859C44.4824 14.6159 44.1732 16.2109 43.75 17.8711C43.3594 19.5312 42.8711 20.9473 42.2852 22.1191H32.8125C31.6732 20.4915 31.0059 17.8548 30.8105 14.209Z" fill="#C0BE8F"/>
<path d="M77.3438 73.0957C69.3359 73.0957 63.3138 70.9635 59.2773 66.6992C55.2409 62.4349 53.2227 56.2337 53.2227 48.0957C53.2227 43.1803 53.9225 38.9486 55.3223 35.4004C56.722 31.8197 58.6263 29.0527 61.0352 27.0996C65.6901 23.3887 71.1263 21.5332 77.3438 21.5332C81.4779 21.5332 84.9609 22.2168 87.793 23.584C90.6576 24.9186 92.8223 27.181 94.2871 30.3711C95.7845 33.5286 96.5332 37.8418 96.5332 43.3105C96.5332 48.1283 94.1569 50.5371 89.4043 50.5371H67.7246C67.985 54.7363 69.0592 57.6986 70.9473 59.4238C72.8678 61.1491 75.8952 62.0117 80.0293 62.0117C82.2754 62.0117 84.4238 61.7513 86.4746 61.2305C88.5579 60.6771 90.0716 60.14 91.0156 59.6191L92.4316 58.8379L95.4102 66.7969C95.0521 67.2201 94.4824 67.806 93.7012 68.5547C93.1803 69.043 92.1224 69.6452 90.5273 70.3613C88.9323 71.0775 86.9792 71.7122 84.668 72.2656C82.3893 72.819 79.9479 73.0957 77.3438 73.0957ZM67.8223 42.2363L83.6426 41.6016C83.7728 40.7878 83.8379 39.6647 83.8379 38.2324C83.8379 36.8978 83.3008 35.4818 82.2266 33.9844C81.1523 32.487 79.2969 31.7383 76.6602 31.7383C74.0234 31.7383 72.0052 32.5358 70.6055 34.1309C69.2057 35.7259 68.278 38.4277 67.8223 42.2363Z" fill="#C0BE8F"/>
<path d="M100.439 9.0332L101.416 1.31836C105.192 0.439453 108.675 0 111.865 0C115.055 0 117.741 0.0976562 119.922 0.292969V61.2305C122.526 62.207 124.365 63.3301 125.439 64.5996L124.463 72.3145H101.416L100.439 64.5996C101.351 63.3301 103.19 62.207 105.957 61.2305V12.4023C103.581 11.6211 101.742 10.498 100.439 9.0332Z" fill="#C0BE8F"/>
<path d="M131.592 29.7363C131.592 29.2155 131.592 28.6947 131.592 28.1738C131.624 27.6204 131.657 27.0671 131.689 26.5137C137.907 23.1934 144.58 21.5332 151.709 21.5332C158.838 21.5332 163.949 22.8841 167.041 25.5859C170.133 28.2878 171.68 32.7637 171.68 39.0137V60.3027C173.991 60.791 175.83 61.3607 177.197 62.0117V70.7031C173.877 72.2982 169.01 73.0957 162.598 73.0957C161.914 71.3053 161.344 69.2057 160.889 66.7969C158.024 70.9961 152.832 73.0957 145.312 73.0957C142.35 73.0957 139.632 72.5098 137.158 71.3379C134.717 70.166 132.764 68.5059 131.299 66.3574C129.834 64.1764 129.102 61.5885 129.102 58.5938C129.102 54.1341 130.583 50.6348 133.545 48.0957C136.507 45.5241 140.918 44.2383 146.777 44.2383H157.715V39.4043C157.715 34.196 154.948 31.5918 149.414 31.5918C147.266 31.5918 145.557 31.8034 144.287 32.2266C144.124 35.0586 143.734 37.2233 143.115 38.7207H133.301C132.161 36.3444 131.592 33.3496 131.592 29.7363ZM149.609 62.8906C153.027 62.8906 155.729 61.8978 157.715 59.9121V51.709H150.684C145.898 51.709 143.506 53.5482 143.506 57.2266C143.506 58.8867 144.01 60.2539 145.02 61.3281C146.061 62.3698 147.591 62.8906 149.609 62.8906Z" fill="#C0BE8F"/>
<path d="M179.541 9.0332L180.518 1.31836C184.294 0.439453 187.777 0 190.967 0C194.157 0 196.842 0.0976562 199.023 0.292969V25.293C200.651 24.2513 202.783 23.3724 205.42 22.6562C208.089 21.9076 210.465 21.5332 212.549 21.5332C219.157 21.5332 223.714 23.1283 226.221 26.3184C228.76 29.5085 230.029 34.375 230.029 40.918V61.2305C232.633 62.207 234.473 63.3301 235.547 64.5996L234.521 72.3145H211.523L210.547 64.5996C211.458 63.3301 213.298 62.207 216.064 61.2305V41.4062C216.064 37.793 215.479 35.3841 214.307 34.1797C213.395 33.2031 212.044 32.6172 210.254 32.4219C208.496 32.194 206.608 32.3405 204.59 32.8613C202.572 33.3822 200.716 34.2611 199.023 35.498V61.2305C201.628 62.207 203.467 63.3301 204.541 64.5996L203.564 72.3145H180.518L179.541 64.5996C180.452 63.3301 182.292 62.207 185.059 61.2305V12.4023C182.682 11.6211 180.843 10.498 179.541 9.0332Z" fill="#C0BE8F"/>
</svg>
