<svg width="1920" height="6646" viewBox="0 0 1920 6646" fill="none" xmlns="http://www.w3.org/2000/svg">
<g clip-path="url(#clip0_303_84)">
<rect width="1920" height="6646" fill="#403E66"/>
<path d="M1316.5 1082L1864.5 -12L1316.5 -30.5L0 495V3612L1316.5 1082Z" fill="#FFFDC0"/>
<path d="M1430 934L1434.49 976.677L1470.66 953.579L1440.09 983.697L1480.7 997.571L1438.09 992.452L1452.56 1032.85L1430 996.348L1407.44 1032.85L1421.91 992.452L1379.3 997.571L1419.91 983.697L1389.34 953.579L1425.51 976.677L1430 934Z" fill="#D9D9D9"/>
<path d="M1430 2021L1434.49 2063.68L1470.66 2040.58L1440.09 2070.7L1480.7 2084.57L1438.09 2079.45L1452.56 2119.85L1430 2083.35L1407.44 2119.85L1421.91 2079.45L1379.3 2084.57L1419.91 2070.7L1389.34 2040.58L1425.51 2063.68L1430 2021Z" fill="#D9D9D9"/>
<path d="M1135 3967L1139.49 4009.68L1175.66 3986.58L1145.09 4016.7L1185.7 4030.57L1143.09 4025.45L1157.56 4065.85L1135 4029.35L1112.44 4065.85L1126.91 4025.45L1084.3 4030.57L1124.91 4016.7L1094.34 3986.58L1130.51 4009.68L1135 3967Z" fill="#D9D9D9"/>
<path d="M1135 5899L1139.49 5941.68L1175.66 5918.58L1145.09 5948.7L1185.7 5962.57L1143.09 5957.45L1157.56 5997.85L1135 5961.35L1112.44 5997.85L1126.91 5957.45L1084.3 5962.57L1124.91 5948.7L1094.34 5918.58L1130.51 5941.68L1135 5899Z" fill="#D9D9D9"/>
<path d="M1430 3108L1434.49 3150.68L1470.66 3127.58L1440.09 3157.7L1480.7 3171.57L1438.09 3166.45L1452.56 3206.85L1430 3170.35L1407.44 3206.85L1421.91 3166.45L1379.3 3171.57L1419.91 3157.7L1389.34 3127.58L1425.51 3150.68L1430 3108Z" fill="#D9D9D9"/>
<path d="M1135 5054L1139.49 5096.68L1175.66 5073.58L1145.09 5103.7L1185.7 5117.57L1143.09 5112.45L1157.56 5152.85L1135 5116.35L1112.44 5152.85L1126.91 5112.45L1084.3 5117.57L1124.91 5103.7L1094.34 5073.58L1130.51 5096.68L1135 5054Z" fill="#D9D9D9"/>
<path d="M1094 2597L1089.51 2554.32L1053.34 2577.42L1083.91 2547.3L1043.3 2533.43L1085.91 2538.55L1071.44 2498.15L1094 2534.65L1116.56 2498.15L1102.09 2538.55L1144.7 2533.43L1104.09 2547.3L1134.66 2577.42L1098.49 2554.32L1094 2597Z" fill="#D9D9D9"/>
<path d="M799 4543L794.51 4500.32L758.345 4523.42L788.911 4493.3L748.304 4479.43L790.91 4484.55L776.438 4444.15L799 4480.65L821.562 4444.15L807.09 4484.55L849.696 4479.43L809.089 4493.3L839.655 4523.42L803.49 4500.32L799 4543Z" fill="#D9D9D9"/>
<path d="M799 6475L794.51 6432.32L758.345 6455.42L788.911 6425.3L748.304 6411.43L790.91 6416.55L776.438 6376.15L799 6412.65L821.562 6376.15L807.09 6416.55L849.696 6411.43L809.089 6425.3L839.655 6455.42L803.49 6432.32L799 6475Z" fill="#D9D9D9"/>
<path d="M1198 1791L1193.51 1748.32L1157.34 1771.42L1187.91 1741.3L1147.3 1727.43L1189.91 1732.55L1175.44 1692.15L1198 1728.65L1220.56 1692.15L1206.09 1732.55L1248.7 1727.43L1208.09 1741.3L1238.66 1771.42L1202.49 1748.32L1198 1791Z" fill="#D9D9D9"/>
<path d="M903 3737L898.51 3694.32L862.345 3717.42L892.911 3687.3L852.304 3673.43L894.91 3678.55L880.438 3638.15L903 3674.65L925.562 3638.15L911.09 3678.55L953.696 3673.43L913.089 3687.3L943.655 3717.42L907.49 3694.32L903 3737Z" fill="#D9D9D9"/>
<path d="M533 5690L528.51 5647.32L492.345 5670.42L522.911 5640.3L482.304 5626.43L524.91 5631.55L510.438 5591.15L533 5627.65L555.562 5591.15L541.09 5631.55L583.696 5626.43L543.089 5640.3L573.655 5670.42L537.49 5647.32L533 5690Z" fill="#D9D9D9"/>
<path d="M1868 725L1872.49 767.677L1908.66 744.579L1878.09 774.697L1918.7 788.571L1876.09 783.452L1890.56 823.85L1868 787.348L1845.44 823.85L1859.91 783.452L1817.3 788.571L1857.91 774.697L1827.34 744.579L1863.51 767.677L1868 725Z" fill="#D9D9D9"/>
<path d="M1868 1812L1872.49 1854.68L1908.66 1831.58L1878.09 1861.7L1918.7 1875.57L1876.09 1870.45L1890.56 1910.85L1868 1874.35L1845.44 1910.85L1859.91 1870.45L1817.3 1875.57L1857.91 1861.7L1827.34 1831.58L1863.51 1854.68L1868 1812Z" fill="#D9D9D9"/>
<path d="M1573 3758L1577.49 3800.68L1613.66 3777.58L1583.09 3807.7L1623.7 3821.57L1581.09 3816.45L1595.56 3856.85L1573 3820.35L1550.44 3856.85L1564.91 3816.45L1522.3 3821.57L1562.91 3807.7L1532.34 3777.58L1568.51 3800.68L1573 3758Z" fill="#D9D9D9"/>
<path d="M1573 5690L1577.49 5732.68L1613.66 5709.58L1583.09 5739.7L1623.7 5753.57L1581.09 5748.45L1595.56 5788.85L1573 5752.35L1550.44 5788.85L1564.91 5748.45L1522.3 5753.57L1562.91 5739.7L1532.34 5709.58L1568.51 5732.68L1573 5690Z" fill="#D9D9D9"/>
<path d="M1868 2899L1872.49 2941.68L1908.66 2918.58L1878.09 2948.7L1918.7 2962.57L1876.09 2957.45L1890.56 2997.85L1868 2961.35L1845.44 2997.85L1859.91 2957.45L1817.3 2962.57L1857.91 2948.7L1827.34 2918.58L1863.51 2941.68L1868 2899Z" fill="#D9D9D9"/>
<path d="M1573 4845L1577.49 4887.68L1613.66 4864.58L1583.09 4894.7L1623.7 4908.57L1581.09 4903.45L1595.56 4943.85L1573 4907.35L1550.44 4943.85L1564.91 4903.45L1522.3 4908.57L1562.91 4894.7L1532.34 4864.58L1568.51 4887.68L1573 4845Z" fill="#D9D9D9"/>
<path d="M585 2701L580.51 2658.32L544.345 2681.42L574.911 2651.3L534.304 2637.43L576.91 2642.55L562.438 2602.15L585 2638.65L607.562 2602.15L593.09 2642.55L635.696 2637.43L595.089 2651.3L625.655 2681.42L589.49 2658.32L585 2701Z" fill="#D9D9D9"/>
<path d="M293 4175L288.51 4132.32L252.345 4155.42L282.911 4125.3L242.304 4111.43L284.91 4116.55L270.438 4076.15L293 4112.65L315.562 4076.15L301.09 4116.55L343.696 4111.43L303.089 4125.3L333.655 4155.42L297.49 4132.32L293 4175Z" fill="#D9D9D9"/>
<path d="M290 6579L285.51 6536.32L249.345 6559.42L279.911 6529.3L239.304 6515.43L281.91 6520.55L267.438 6480.15L290 6516.65L312.562 6480.15L298.09 6520.55L340.696 6515.43L300.089 6529.3L330.655 6559.42L294.49 6536.32L290 6579Z" fill="#D9D9D9"/>
<path d="M1813 214L1817.49 256.677L1853.66 233.579L1823.09 263.697L1863.7 277.571L1821.09 272.452L1835.56 312.85L1813 276.348L1790.44 312.85L1804.91 272.452L1762.3 277.571L1802.91 263.697L1772.34 233.579L1808.51 256.677L1813 214Z" fill="#D9D9D9"/>
<path d="M1813 1301L1817.49 1343.68L1853.66 1320.58L1823.09 1350.7L1863.7 1364.57L1821.09 1359.45L1835.56 1399.85L1813 1363.35L1790.44 1399.85L1804.91 1359.45L1762.3 1364.57L1802.91 1350.7L1772.34 1320.58L1808.51 1343.68L1813 1301Z" fill="#D9D9D9"/>
<path d="M1813 2388L1817.49 2430.68L1853.66 2407.58L1823.09 2437.7L1863.7 2451.57L1821.09 2446.45L1835.56 2486.85L1813 2450.35L1790.44 2486.85L1804.91 2446.45L1762.3 2451.57L1802.91 2437.7L1772.34 2407.58L1808.51 2430.68L1813 2388Z" fill="#D9D9D9"/>
<path d="M1518 4334L1522.49 4376.68L1558.66 4353.58L1528.09 4383.7L1568.7 4397.57L1526.09 4392.45L1540.56 4432.85L1518 4396.35L1495.44 4432.85L1509.91 4392.45L1467.3 4397.57L1507.91 4383.7L1477.34 4353.58L1513.51 4376.68L1518 4334Z" fill="#D9D9D9"/>
<path d="M1518 6266L1522.49 6308.68L1558.66 6285.58L1528.09 6315.7L1568.7 6329.57L1526.09 6324.45L1540.56 6364.85L1518 6328.35L1495.44 6364.85L1509.91 6324.45L1467.3 6329.57L1507.91 6315.7L1477.34 6285.58L1513.51 6308.68L1518 6266Z" fill="#D9D9D9"/>
<path d="M640 3212L635.51 3169.32L599.345 3192.42L629.911 3162.3L589.304 3148.43L631.91 3153.55L617.438 3113.15L640 3149.65L662.562 3113.15L648.09 3153.55L690.696 3148.43L650.089 3162.3L680.655 3192.42L644.49 3169.32L640 3212Z" fill="#D9D9D9"/>
<path d="M345 5158L340.51 5115.32L304.345 5138.42L334.911 5108.3L294.304 5094.43L336.91 5099.55L322.438 5059.15L345 5095.65L367.562 5059.15L353.09 5099.55L395.696 5094.43L355.089 5108.3L385.655 5138.42L349.49 5115.32L345 5158Z" fill="#D9D9D9"/>
<path d="M270 162L274.49 204.677L310.655 181.579L280.089 211.697L320.696 225.571L278.09 220.452L292.562 260.85L270 224.348L247.438 260.85L261.91 220.452L219.304 225.571L259.911 211.697L229.345 181.579L265.51 204.677L270 162Z" fill="#D9D9D9"/>
<path d="M650 -52L654.49 -9.32323L690.655 -32.4215L660.089 -2.30265L700.696 11.5711L658.09 6.45187L672.562 46.8504L650 10.348L627.438 46.8504L641.91 6.45187L599.304 11.5711L639.911 -2.30265L609.345 -32.4215L645.51 -9.32323L650 -52Z" fill="#D9D9D9"/>
<path d="M22 38L26.4898 80.6768L62.6552 57.5785L32.0886 87.6974L72.6963 101.571L30.0904 96.4519L44.562 136.85L22 100.348L-0.561954 136.85L13.9096 96.4519L-28.6963 101.571L11.9114 87.6974L-18.6552 57.5785L17.5102 80.6768L22 38Z" fill="#D9D9D9"/>
</g>
<defs>
<clipPath id="clip0_303_84">
<rect width="1920" height="6646" fill="white"/>
</clipPath>
</defs>
</svg>
