<svg width="1920" height="3354" viewBox="0 0 1920 3354" fill="none" xmlns="http://www.w3.org/2000/svg">
<g clip-path="url(#clip0_303_84)">
<rect width="1920" height="3354" fill="#403E66"/>
<path d="M1316.5 1082L1864.5 -12L1316.5 -30.5L0 495V3612L1316.5 1082Z" fill="#FFFDC0"/>
<path d="M1430 934L1434.49 976.677L1470.66 953.579L1440.09 983.697L1480.7 997.571L1438.09 992.452L1452.56 1032.85L1430 996.348L1407.44 1032.85L1421.91 992.452L1379.3 997.571L1419.91 983.697L1389.34 953.579L1425.51 976.677L1430 934Z" fill="#D9D9D9"/>
<path d="M1430 2021L1434.49 2063.68L1470.66 2040.58L1440.09 2070.7L1480.7 2084.57L1438.09 2079.45L1452.56 2119.85L1430 2083.35L1407.44 2119.85L1421.91 2079.45L1379.3 2084.57L1419.91 2070.7L1389.34 2040.58L1425.51 2063.68L1430 2021Z" fill="#D9D9D9"/>
<path d="M1430 3108L1434.49 3150.68L1470.66 3127.58L1440.09 3157.7L1480.7 3171.57L1438.09 3166.45L1452.56 3206.85L1430 3170.35L1407.44 3206.85L1421.91 3166.45L1379.3 3171.57L1419.91 3157.7L1389.34 3127.58L1425.51 3150.68L1430 3108Z" fill="#D9D9D9"/>
<path d="M1094 2597L1089.51 2554.32L1053.34 2577.42L1083.91 2547.3L1043.3 2533.43L1085.91 2538.55L1071.44 2498.15L1094 2534.65L1116.56 2498.15L1102.09 2538.55L1144.7 2533.43L1104.09 2547.3L1134.66 2577.42L1098.49 2554.32L1094 2597Z" fill="#D9D9D9"/>
<path d="M1198 1791L1193.51 1748.32L1157.34 1771.42L1187.91 1741.3L1147.3 1727.43L1189.91 1732.55L1175.44 1692.15L1198 1728.65L1220.56 1692.15L1206.09 1732.55L1248.7 1727.43L1208.09 1741.3L1238.66 1771.42L1202.49 1748.32L1198 1791Z" fill="#D9D9D9"/>
<path d="M1868 725L1872.49 767.677L1908.66 744.579L1878.09 774.697L1918.7 788.571L1876.09 783.452L1890.56 823.85L1868 787.348L1845.44 823.85L1859.91 783.452L1817.3 788.571L1857.91 774.697L1827.34 744.579L1863.51 767.677L1868 725Z" fill="#D9D9D9"/>
<path d="M1868 1812L1872.49 1854.68L1908.66 1831.58L1878.09 1861.7L1918.7 1875.57L1876.09 1870.45L1890.56 1910.85L1868 1874.35L1845.44 1910.85L1859.91 1870.45L1817.3 1875.57L1857.91 1861.7L1827.34 1831.58L1863.51 1854.68L1868 1812Z" fill="#D9D9D9"/>
<path d="M1868 2899L1872.49 2941.68L1908.66 2918.58L1878.09 2948.7L1918.7 2962.57L1876.09 2957.45L1890.56 2997.85L1868 2961.35L1845.44 2997.85L1859.91 2957.45L1817.3 2962.57L1857.91 2948.7L1827.34 2918.58L1863.51 2941.68L1868 2899Z" fill="#D9D9D9"/>
<path d="M585 2701L580.51 2658.32L544.345 2681.42L574.911 2651.3L534.304 2637.43L576.91 2642.55L562.438 2602.15L585 2638.65L607.562 2602.15L593.09 2642.55L635.696 2637.43L595.089 2651.3L625.655 2681.42L589.49 2658.32L585 2701Z" fill="#D9D9D9"/>
<path d="M1813 214L1817.49 256.677L1853.66 233.579L1823.09 263.697L1863.7 277.571L1821.09 272.452L1835.56 312.85L1813 276.348L1790.44 312.85L1804.91 272.452L1762.3 277.571L1802.91 263.697L1772.34 233.579L1808.51 256.677L1813 214Z" fill="#D9D9D9"/>
<path d="M1813 1301L1817.49 1343.68L1853.66 1320.58L1823.09 1350.7L1863.7 1364.57L1821.09 1359.45L1835.56 1399.85L1813 1363.35L1790.44 1399.85L1804.91 1359.45L1762.3 1364.57L1802.91 1350.7L1772.34 1320.58L1808.51 1343.68L1813 1301Z" fill="#D9D9D9"/>
<path d="M1813 2388L1817.49 2430.68L1853.66 2407.58L1823.09 2437.7L1863.7 2451.57L1821.09 2446.45L1835.56 2486.85L1813 2450.35L1790.44 2486.85L1804.91 2446.45L1762.3 2451.57L1802.91 2437.7L1772.34 2407.58L1808.51 2430.68L1813 2388Z" fill="#D9D9D9"/>
<path d="M640 3212L635.51 3169.32L599.345 3192.42L629.911 3162.3L589.304 3148.43L631.91 3153.55L617.438 3113.15L640 3149.65L662.562 3113.15L648.09 3153.55L690.696 3148.43L650.089 3162.3L680.655 3192.42L644.49 3169.32L640 3212Z" fill="#D9D9D9"/>
<path d="M270 162L274.49 204.677L310.655 181.579L280.089 211.697L320.696 225.571L278.09 220.452L292.562 260.85L270 224.348L247.438 260.85L261.91 220.452L219.304 225.571L259.911 211.697L229.345 181.579L265.51 204.677L270 162Z" fill="#D9D9D9"/>
<path d="M650 -52L654.49 -9.32323L690.655 -32.4215L660.089 -2.30265L700.696 11.5711L658.09 6.45187L672.562 46.8504L650 10.348L627.438 46.8504L641.91 6.45187L599.304 11.5711L639.911 -2.30265L609.345 -32.4215L645.51 -9.32323L650 -52Z" fill="#D9D9D9"/>
<path d="M22 38L26.4898 80.6768L62.6552 57.5785L32.0886 87.6974L72.6963 101.571L30.0904 96.4519L44.562 136.85L22 100.348L-0.561954 136.85L13.9096 96.4519L-28.6963 101.571L11.9114 87.6974L-18.6552 57.5785L17.5102 80.6768L22 38Z" fill="#D9D9D9"/>
</g>
<defs>
<clipPath id="clip0_303_84">
<rect width="1920" height="3354" fill="white"/>
</clipPath>
</defs>
</svg>
